<svg viewBox="0 0 480 200" xmlns="http://www.w3.org/2000/svg" width="480" height="200" style="background-color:#ffffff">
<text text-anchor="middle" fill="#000000" font-size="14px" x="240" y="14">f(x)=x^3-3x^2-x+2</text>
<text text-anchor="middle" fill="#000000" font-size="12px" x="261" y="195">x</text>
<text text-anchor="middle" fill="#000000" font-size="12px" x="17" y="88" transform="rotate(-90,17,88)">f(x)</text>
<g stroke-linecap="square" stroke="#000000" stroke-width="1px">
<line x1="47" x2="475" y1="24.000000" y2="24.000000"/>
<line x1="47" x2="475" y1="45.500000" y2="45.500000"/>
<line x1="47" x2="475" y1="67.000000" y2="67.000000"/>
<line x1="47" x2="475" y1="88.500000" y2="88.500000"/>
<line x1="47" x2="475" y1="110.00000" y2="110.00000"/>
<line x1="47" x2="475" y1="131.50000" y2="131.50000"/>
<line x1="47" x2="475" y1="153.00000" y2="153.00000"/>
<line x1="47.000000" x2="47.000000" y1="24" y2="153"/>
<line x1="118.33333" x2="118.33333" y1="24" y2="153"/>
<line x1="189.66667" x2="189.66667" y1="24" y2="153"/>
<line x1="261.00000" x2="261.00000" y1="24" y2="153"/>
<line x1="332.33333" x2="332.33333" y1="24" y2="153"/>
<line x1="403.66667" x2="403.66667" y1="24" y2="153"/>
<line x1="475.00000" x2="475.00000" y1="24" y2="153"/>
</g>
<g text-anchor="end" fill="#000000" font-size="8px">
<text x="42" y="28.000000">18</text>
<text x="42" y="49.500000">12</text>
<text x="42" y="71.000000">6.0</text>
<text x="42" y="92.500000">+0.0</text>
<text x="42" y="114.00000">-6.0</text>
<text x="42" y="135.50000">-12</text>
<text x="42" y="157.00000">-18</text>
</g>
<g text-anchor="start" fill="#000000" font-size="8px">
<text x="43.000000" y="158" transform="rotate(90,43.000000,158)">-2.0</text>
<text x="114.33333" y="158" transform="rotate(90,114.33333,158)">-1.0</text>
<text x="185.66667" y="158" transform="rotate(90,185.66667,158)">+0.0</text>
<text x="257.00000" y="158" transform="rotate(90,257.00000,158)">1.0</text>
<text x="328.33333" y="158" transform="rotate(90,328.33333,158)">2.0</text>
<text x="399.66667" y="158" transform="rotate(90,399.66667,158)">3.0</text>
<text x="471.00000" y="158" transform="rotate(90,471.00000,158)">4.0</text>
</g>
<path stroke="#ff0000" stroke-width="2px" fill="none" d="M 47.000000 145.83333 L 51.280000 141.00366 L 55.560000 136.40154 L 59.840000 132.02234 L 64.120000 127.86140 L 68.400000 123.91408 L 72.680000 120.17575 L 76.960000 116.64175 L 81.240000 113.30745 L 85.520000 110.16819 L 89.800000 107.21933 L 94.080000 104.45624 L 98.360000 101.87426 L 102.64000 99.468755 L 106.92000 97.235077 L 111.20000 95.168583 L 115.48000 93.264629 L 119.76000 91.518571 L 124.04000 89.925765 L 128.32000 88.481567 L 132.60000 87.181333 L 136.88000 86.020419 L 141.16000 84.994181 L 145.44000 84.097975 L 149.72000 83.327157 L 154.00000 82.677083 L 158.28000 82.143109 L 162.56000 81.720591 L 166.84000 81.404885 L 171.12000 81.191347 L 175.40000 81.075333 L 179.68000 81.052199 L 183.96000 81.117301 L 188.24000 81.265995 L 192.52000 81.493637 L 196.80000 81.795583 L 201.08000 82.167189 L 205.36000 82.603811 L 209.64000 83.100805 L 213.92000 83.653527 L 218.20000 84.257333 L 222.48000 84.907579 L 226.76000 85.599621 L 231.04000 86.328815 L 235.32000 87.090517 L 239.60000 87.880083 L 243.88000 88.692869 L 248.16000 89.524231 L 252.44000 90.369525 L 256.72000 91.224107 L 261.00000 92.083333 L 265.28000 92.942559 L 269.56000 93.797141 L 273.84000 94.642435 L 278.12000 95.473797 L 282.40000 96.286583 L 286.68000 97.076149 L 290.96000 97.837851 L 295.24000 98.567045 L 299.52000 99.259087 L 303.80000 99.909333 L 308.08000 100.51314 L 312.36000 101.06586 L 316.64000 101.56286 L 320.92000 101.99948 L 325.20000 102.37108 L 329.48000 102.67303 L 333.76000 102.90067 L 338.04000 103.04937 L 342.32000 103.11447 L 346.60000 103.09133 L 350.88000 102.97532 L 355.16000 102.76178 L 359.44000 102.44608 L 363.72000 102.02356 L 368.00000 101.48958 L 372.28000 100.83951 L 376.56000 100.06869 L 380.84000 99.172485 L 385.12000 98.146247 L 389.40000 96.985333 L 393.68000 95.685099 L 397.96000 94.240901 L 402.24000 92.648095 L 406.52000 90.902037 L 410.80000 88.998083 L 415.08000 86.931589 L 419.36000 84.697911 L 423.64000 82.292405 L 427.92000 79.710427 L 432.20000 76.947333 L 436.48000 73.998479 L 440.76000 70.859221 L 445.04000 67.524915 L 449.32000 63.990917 L 453.60000 60.252583 L 457.88000 56.305269 L 462.16000 52.144331 L 466.44000 47.765125 L 470.72000 43.163007 L 475.00000 38.333333 L"/>
<g fill="#000000">
<circle cx="47.000000" cy="145.83333" r="1"/>
<circle cx="51.280000" cy="141.00366" r="1"/>
<circle cx="55.560000" cy="136.40154" r="1"/>
<circle cx="59.840000" cy="132.02234" r="1"/>
<circle cx="64.120000" cy="127.86140" r="1"/>
<circle cx="68.400000" cy="123.91408" r="1"/>
<circle cx="72.680000" cy="120.17575" r="1"/>
<circle cx="76.960000" cy="116.64175" r="1"/>
<circle cx="81.240000" cy="113.30745" r="1"/>
<circle cx="85.520000" cy="110.16819" r="1"/>
<circle cx="89.800000" cy="107.21933" r="1"/>
<circle cx="94.080000" cy="104.45624" r="1"/>
<circle cx="98.360000" cy="101.87426" r="1"/>
<circle cx="102.64000" cy="99.468755" r="1"/>
<circle cx="106.92000" cy="97.235077" r="1"/>
<circle cx="111.20000" cy="95.168583" r="1"/>
<circle cx="115.48000" cy="93.264629" r="1"/>
<circle cx="119.76000" cy="91.518571" r="1"/>
<circle cx="124.04000" cy="89.925765" r="1"/>
<circle cx="128.32000" cy="88.481567" r="1"/>
<circle cx="132.60000" cy="87.181333" r="1"/>
<circle cx="136.88000" cy="86.020419" r="1"/>
<circle cx="141.16000" cy="84.994181" r="1"/>
<circle cx="145.44000" cy="84.097975" r="1"/>
<circle cx="149.72000" cy="83.327157" r="1"/>
<circle cx="154.00000" cy="82.677083" r="1"/>
<circle cx="158.28000" cy="82.143109" r="1"/>
<circle cx="162.56000" cy="81.720591" r="1"/>
<circle cx="166.84000" cy="81.404885" r="1"/>
<circle cx="171.12000" cy="81.191347" r="1"/>
<circle cx="175.40000" cy="81.075333" r="1"/>
<circle cx="179.68000" cy="81.052199" r="1"/>
<circle cx="183.96000" cy="81.117301" r="1"/>
<circle cx="188.24000" cy="81.265995" r="1"/>
<circle cx="192.52000" cy="81.493637" r="1"/>
<circle cx="196.80000" cy="81.795583" r="1"/>
<circle cx="201.08000" cy="82.167189" r="1"/>
<circle cx="205.36000" cy="82.603811" r="1"/>
<circle cx="209.64000" cy="83.100805" r="1"/>
<circle cx="213.92000" cy="83.653527" r="1"/>
<circle cx="218.20000" cy="84.257333" r="1"/>
<circle cx="222.48000" cy="84.907579" r="1"/>
<circle cx="226.76000" cy="85.599621" r="1"/>
<circle cx="231.04000" cy="86.328815" r="1"/>
<circle cx="235.32000" cy="87.090517" r="1"/>
<circle cx="239.60000" cy="87.880083" r="1"/>
<circle cx="243.88000" cy="88.692869" r="1"/>
<circle cx="248.16000" cy="89.524231" r="1"/>
<circle cx="252.44000" cy="90.369525" r="1"/>
<circle cx="256.72000" cy="91.224107" r="1"/>
<circle cx="261.00000" cy="92.083333" r="1"/>
<circle cx="265.28000" cy="92.942559" r="1"/>
<circle cx="269.56000" cy="93.797141" r="1"/>
<circle cx="273.84000" cy="94.642435" r="1"/>
<circle cx="278.12000" cy="95.473797" r="1"/>
<circle cx="282.40000" cy="96.286583" r="1"/>
<circle cx="286.68000" cy="97.076149" r="1"/>
<circle cx="290.96000" cy="97.837851" r="1"/>
<circle cx="295.24000" cy="98.567045" r="1"/>
<circle cx="299.52000" cy="99.259087" r="1"/>
<circle cx="303.80000" cy="99.909333" r="1"/>
<circle cx="308.08000" cy="100.51314" r="1"/>
<circle cx="312.36000" cy="101.06586" r="1"/>
<circle cx="316.64000" cy="101.56286" r="1"/>
<circle cx="320.92000" cy="101.99948" r="1"/>
<circle cx="325.20000" cy="102.37108" r="1"/>
<circle cx="329.48000" cy="102.67303" r="1"/>
<circle cx="333.76000" cy="102.90067" r="1"/>
<circle cx="338.04000" cy="103.04937" r="1"/>
<circle cx="342.32000" cy="103.11447" r="1"/>
<circle cx="346.60000" cy="103.09133" r="1"/>
<circle cx="350.88000" cy="102.97532" r="1"/>
<circle cx="355.16000" cy="102.76178" r="1"/>
<circle cx="359.44000" cy="102.44608" r="1"/>
<circle cx="363.72000" cy="102.02356" r="1"/>
<circle cx="368.00000" cy="101.48958" r="1"/>
<circle cx="372.28000" cy="100.83951" r="1"/>
<circle cx="376.56000" cy="100.06869" r="1"/>
<circle cx="380.84000" cy="99.172485" r="1"/>
<circle cx="385.12000" cy="98.146247" r="1"/>
<circle cx="389.40000" cy="96.985333" r="1"/>
<circle cx="393.68000" cy="95.685099" r="1"/>
<circle cx="397.96000" cy="94.240901" r="1"/>
<circle cx="402.24000" cy="92.648095" r="1"/>
<circle cx="406.52000" cy="90.902037" r="1"/>
<circle cx="410.80000" cy="88.998083" r="1"/>
<circle cx="415.08000" cy="86.931589" r="1"/>
<circle cx="419.36000" cy="84.697911" r="1"/>
<circle cx="423.64000" cy="82.292405" r="1"/>
<circle cx="427.92000" cy="79.710427" r="1"/>
<circle cx="432.20000" cy="76.947333" r="1"/>
<circle cx="436.48000" cy="73.998479" r="1"/>
<circle cx="440.76000" cy="70.859221" r="1"/>
<circle cx="445.04000" cy="67.524915" r="1"/>
<circle cx="449.32000" cy="63.990917" r="1"/>
<circle cx="453.60000" cy="60.252583" r="1"/>
<circle cx="457.88000" cy="56.305269" r="1"/>
<circle cx="462.16000" cy="52.144331" r="1"/>
<circle cx="466.44000" cy="47.765125" r="1"/>
<circle cx="470.72000" cy="43.163007" r="1"/>
<circle cx="475.00000" cy="38.333333" r="1"/>
</g>
</svg>
