<svg viewBox="0 0 400 200" xmlns="http://www.w3.org/2000/svg" width="400" height="200" style="background-color:#ffffff">
<text text-anchor="middle" fill="#000000" font-size="14px" x="200" y="14">Height of 1 &amp; 2 WTC</text>
<text text-anchor="middle" fill="#000000" font-size="12px" x="226" y="195">Days after August 1, 2001</text>
<text text-anchor="middle" fill="#000000" font-size="12px" x="17" y="93" transform="rotate(-90,17,93)">Feet</text>
<g stroke-linecap="square" stroke="#000000" stroke-width="2px">
<line x1="57" x2="395" y1="24.000000" y2="24.000000"/>
<line x1="57" x2="395" y1="70.333333" y2="70.333333"/>
<line x1="57" x2="395" y1="116.66667" y2="116.66667"/>
<line x1="57" x2="395" y1="163.00000" y2="163.00000"/>
<line x1="57.000000" x2="57.000000" y1="24" y2="163"/>
<line x1="113.33333" x2="113.33333" y1="24" y2="163"/>
<line x1="169.66667" x2="169.66667" y1="24" y2="163"/>
<line x1="226.00000" x2="226.00000" y1="24" y2="163"/>
<line x1="282.33333" x2="282.33333" y1="24" y2="163"/>
<line x1="338.66667" x2="338.66667" y1="24" y2="163"/>
<line x1="395.00000" x2="395.00000" y1="24" y2="163"/>
</g>
<g stroke-linecap="square" stroke="#000000" stroke-width="1px">
<line x1="57" x2="395" y1="35.583333" y2="35.583333"/>
<line x1="57" x2="395" y1="47.166667" y2="47.166667"/>
<line x1="57" x2="395" y1="58.750000" y2="58.750000"/>
<line x1="57" x2="395" y1="81.916667" y2="81.916667"/>
<line x1="57" x2="395" y1="93.500000" y2="93.500000"/>
<line x1="57" x2="395" y1="105.08333" y2="105.08333"/>
<line x1="57" x2="395" y1="128.25000" y2="128.25000"/>
<line x1="57" x2="395" y1="139.83333" y2="139.83333"/>
<line x1="57" x2="395" y1="151.41667" y2="151.41667"/>
<line x1="71.083333" x2="71.083333" y1="24" y2="163"/>
<line x1="85.166667" x2="85.166667" y1="24" y2="163"/>
<line x1="99.250000" x2="99.250000" y1="24" y2="163"/>
<line x1="127.41667" x2="127.41667" y1="24" y2="163"/>
<line x1="141.50000" x2="141.50000" y1="24" y2="163"/>
<line x1="155.58333" x2="155.58333" y1="24" y2="163"/>
<line x1="183.75000" x2="183.75000" y1="24" y2="163"/>
<line x1="197.83333" x2="197.83333" y1="24" y2="163"/>
<line x1="211.91667" x2="211.91667" y1="24" y2="163"/>
<line x1="240.08333" x2="240.08333" y1="24" y2="163"/>
<line x1="254.16667" x2="254.16667" y1="24" y2="163"/>
<line x1="268.25000" x2="268.25000" y1="24" y2="163"/>
<line x1="296.41667" x2="296.41667" y1="24" y2="163"/>
<line x1="310.50000" x2="310.50000" y1="24" y2="163"/>
<line x1="324.58333" x2="324.58333" y1="24" y2="163"/>
<line x1="352.75000" x2="352.75000" y1="24" y2="163"/>
<line x1="366.83333" x2="366.83333" y1="24" y2="163"/>
<line x1="380.91667" x2="380.91667" y1="24" y2="163"/>
</g>
<g text-anchor="end" fill="#000000" font-size="8px">
<text x="52" y="28.000000">1500.00</text>
<text x="52" y="74.333333">1000.000</text>
<text x="52" y="120.66667">500.000</text>
<text x="52" y="167.00000">+0.0</text>
</g>
<g text-anchor="start" fill="#000000" font-size="8px">
<text x="53.000000" y="168" transform="rotate(90,53.000000,168)">+0.0</text>
<text x="109.33333" y="168" transform="rotate(90,109.33333,168)">10.0</text>
<text x="165.66667" y="168" transform="rotate(90,165.66667,168)">20</text>
<text x="222.00000" y="168" transform="rotate(90,222.00000,168)">30</text>
<text x="278.33333" y="168" transform="rotate(90,278.33333,168)">40</text>
<text x="334.66667" y="168" transform="rotate(90,334.66667,168)">50</text>
<text x="391.00000" y="168" transform="rotate(90,391.00000,168)">60</text>
</g>
<path stroke="#ff0000" stroke-width="2px" fill="none" d="M 57.000000 36.232000 L 62.633333 36.232000 L 68.266667 36.232000 L 73.900000 36.232000 L 79.533333 36.232000 L 85.166667 36.232000 L 90.800000 36.232000 L 96.433333 36.232000 L 102.06667 36.232000 L 107.70000 36.232000 L 113.33333 36.232000 L 118.96667 36.232000 L 124.60000 36.232000 L 130.23333 36.232000 L 135.86667 36.232000 L 141.50000 36.232000 L 147.13333 36.232000 L 152.76667 36.232000 L 158.40000 36.232000 L 164.03333 36.232000 L 169.66667 36.232000 L 175.30000 36.232000 L 180.93333 36.232000 L 186.56667 36.232000 L 192.20000 36.232000 L 197.83333 36.232000 L 203.46667 36.232000 L 209.10000 36.232000 L 214.73333 36.232000 L 220.36667 36.232000 L 226.00000 36.232000 L 231.63333 36.232000 L 237.26667 36.232000 L 242.90000 36.232000 L 248.53333 36.232000 L 254.16667 36.232000 L 259.80000 36.232000 L 265.43333 36.232000 L 271.06667 36.232000 L 276.70000 36.232000 L 282.33333 36.232000 L 287.96667 163.00000 L 293.60000 163.00000 L 299.23333 163.00000 L 304.86667 163.00000 L 310.50000 163.00000 L 316.13333 163.00000 L 321.76667 163.00000 L 327.40000 163.00000 L 333.03333 163.00000 L 338.66667 163.00000 L 344.30000 163.00000 L 349.93333 163.00000 L 355.56667 163.00000 L 361.20000 163.00000 L 366.83333 163.00000 L 372.46667 163.00000 L 378.10000 163.00000 L 383.73333 163.00000 L 389.36667 163.00000 L 395.00000 163.00000 L"/>
<path stroke="#0000ff" stroke-width="1px" fill="none" d="M 57.000000 36.788000 L 62.633333 36.788000 L 68.266667 36.788000 L 73.900000 36.788000 L 79.533333 36.788000 L 85.166667 36.788000 L 90.800000 36.788000 L 96.433333 36.788000 L 102.06667 36.788000 L 107.70000 36.788000 L 113.33333 36.788000 L 118.96667 36.788000 L 124.60000 36.788000 L 130.23333 36.788000 L 135.86667 36.788000 L 141.50000 36.788000 L 147.13333 36.788000 L 152.76667 36.788000 L 158.40000 36.788000 L 164.03333 36.788000 L 169.66667 36.788000 L 175.30000 36.788000 L 180.93333 36.788000 L 186.56667 36.788000 L 192.20000 36.788000 L 197.83333 36.788000 L 203.46667 36.788000 L 209.10000 36.788000 L 214.73333 36.788000 L 220.36667 36.788000 L 226.00000 36.788000 L 231.63333 36.788000 L 237.26667 36.788000 L 242.90000 36.788000 L 248.53333 36.788000 L 254.16667 36.788000 L 259.80000 36.788000 L 265.43333 36.788000 L 271.06667 36.788000 L 276.70000 36.788000 L 282.33333 36.788000 L 287.96667 163.00000 L 293.60000 163.00000 L 299.23333 163.00000 L 304.86667 163.00000 L 310.50000 163.00000 L 316.13333 163.00000 L 321.76667 163.00000 L 327.40000 163.00000 L 333.03333 163.00000 L 338.66667 163.00000 L 344.30000 163.00000 L 349.93333 163.00000 L 355.56667 163.00000 L 361.20000 163.00000 L 366.83333 163.00000 L 372.46667 163.00000 L 378.10000 163.00000 L 383.73333 163.00000 L 389.36667 163.00000 L 395.00000 163.00000 L"/>
<g fill="#ff0000">
<circle cx="57.000000" cy="36.232000" r="3"/>
<circle cx="62.633333" cy="36.232000" r="3"/>
<circle cx="68.266667" cy="36.232000" r="3"/>
<circle cx="73.900000" cy="36.232000" r="3"/>
<circle cx="79.533333" cy="36.232000" r="3"/>
<circle cx="85.166667" cy="36.232000" r="3"/>
<circle cx="90.800000" cy="36.232000" r="3"/>
<circle cx="96.433333" cy="36.232000" r="3"/>
<circle cx="102.06667" cy="36.232000" r="3"/>
<circle cx="107.70000" cy="36.232000" r="3"/>
<circle cx="113.33333" cy="36.232000" r="3"/>
<circle cx="118.96667" cy="36.232000" r="3"/>
<circle cx="124.60000" cy="36.232000" r="3"/>
<circle cx="130.23333" cy="36.232000" r="3"/>
<circle cx="135.86667" cy="36.232000" r="3"/>
<circle cx="141.50000" cy="36.232000" r="3"/>
<circle cx="147.13333" cy="36.232000" r="3"/>
<circle cx="152.76667" cy="36.232000" r="3"/>
<circle cx="158.40000" cy="36.232000" r="3"/>
<circle cx="164.03333" cy="36.232000" r="3"/>
<circle cx="169.66667" cy="36.232000" r="3"/>
<circle cx="175.30000" cy="36.232000" r="3"/>
<circle cx="180.93333" cy="36.232000" r="3"/>
<circle cx="186.56667" cy="36.232000" r="3"/>
<circle cx="192.20000" cy="36.232000" r="3"/>
<circle cx="197.83333" cy="36.232000" r="3"/>
<circle cx="203.46667" cy="36.232000" r="3"/>
<circle cx="209.10000" cy="36.232000" r="3"/>
<circle cx="214.73333" cy="36.232000" r="3"/>
<circle cx="220.36667" cy="36.232000" r="3"/>
<circle cx="226.00000" cy="36.232000" r="3"/>
<circle cx="231.63333" cy="36.232000" r="3"/>
<circle cx="237.26667" cy="36.232000" r="3"/>
<circle cx="242.90000" cy="36.232000" r="3"/>
<circle cx="248.53333" cy="36.232000" r="3"/>
<circle cx="254.16667" cy="36.232000" r="3"/>
<circle cx="259.80000" cy="36.232000" r="3"/>
<circle cx="265.43333" cy="36.232000" r="3"/>
<circle cx="271.06667" cy="36.232000" r="3"/>
<circle cx="276.70000" cy="36.232000" r="3"/>
<circle cx="282.33333" cy="36.232000" r="3"/>
<circle cx="287.96667" cy="163.00000" r="3"/>
<circle cx="293.60000" cy="163.00000" r="3"/>
<circle cx="299.23333" cy="163.00000" r="3"/>
<circle cx="304.86667" cy="163.00000" r="3"/>
<circle cx="310.50000" cy="163.00000" r="3"/>
<circle cx="316.13333" cy="163.00000" r="3"/>
<circle cx="321.76667" cy="163.00000" r="3"/>
<circle cx="327.40000" cy="163.00000" r="3"/>
<circle cx="333.03333" cy="163.00000" r="3"/>
<circle cx="338.66667" cy="163.00000" r="3"/>
<circle cx="344.30000" cy="163.00000" r="3"/>
<circle cx="349.93333" cy="163.00000" r="3"/>
<circle cx="355.56667" cy="163.00000" r="3"/>
<circle cx="361.20000" cy="163.00000" r="3"/>
<circle cx="366.83333" cy="163.00000" r="3"/>
<circle cx="372.46667" cy="163.00000" r="3"/>
<circle cx="378.10000" cy="163.00000" r="3"/>
<circle cx="383.73333" cy="163.00000" r="3"/>
<circle cx="389.36667" cy="163.00000" r="3"/>
<circle cx="395.00000" cy="163.00000" r="3"/>
</g>
<g fill="#0000ff">
<circle cx="57.000000" cy="36.788000" r="2"/>
<circle cx="62.633333" cy="36.788000" r="2"/>
<circle cx="68.266667" cy="36.788000" r="2"/>
<circle cx="73.900000" cy="36.788000" r="2"/>
<circle cx="79.533333" cy="36.788000" r="2"/>
<circle cx="85.166667" cy="36.788000" r="2"/>
<circle cx="90.800000" cy="36.788000" r="2"/>
<circle cx="96.433333" cy="36.788000" r="2"/>
<circle cx="102.06667" cy="36.788000" r="2"/>
<circle cx="107.70000" cy="36.788000" r="2"/>
<circle cx="113.33333" cy="36.788000" r="2"/>
<circle cx="118.96667" cy="36.788000" r="2"/>
<circle cx="124.60000" cy="36.788000" r="2"/>
<circle cx="130.23333" cy="36.788000" r="2"/>
<circle cx="135.86667" cy="36.788000" r="2"/>
<circle cx="141.50000" cy="36.788000" r="2"/>
<circle cx="147.13333" cy="36.788000" r="2"/>
<circle cx="152.76667" cy="36.788000" r="2"/>
<circle cx="158.40000" cy="36.788000" r="2"/>
<circle cx="164.03333" cy="36.788000" r="2"/>
<circle cx="169.66667" cy="36.788000" r="2"/>
<circle cx="175.30000" cy="36.788000" r="2"/>
<circle cx="180.93333" cy="36.788000" r="2"/>
<circle cx="186.56667" cy="36.788000" r="2"/>
<circle cx="192.20000" cy="36.788000" r="2"/>
<circle cx="197.83333" cy="36.788000" r="2"/>
<circle cx="203.46667" cy="36.788000" r="2"/>
<circle cx="209.10000" cy="36.788000" r="2"/>
<circle cx="214.73333" cy="36.788000" r="2"/>
<circle cx="220.36667" cy="36.788000" r="2"/>
<circle cx="226.00000" cy="36.788000" r="2"/>
<circle cx="231.63333" cy="36.788000" r="2"/>
<circle cx="237.26667" cy="36.788000" r="2"/>
<circle cx="242.90000" cy="36.788000" r="2"/>
<circle cx="248.53333" cy="36.788000" r="2"/>
<circle cx="254.16667" cy="36.788000" r="2"/>
<circle cx="259.80000" cy="36.788000" r="2"/>
<circle cx="265.43333" cy="36.788000" r="2"/>
<circle cx="271.06667" cy="36.788000" r="2"/>
<circle cx="276.70000" cy="36.788000" r="2"/>
<circle cx="282.33333" cy="36.788000" r="2"/>
<circle cx="287.96667" cy="163.00000" r="2"/>
<circle cx="293.60000" cy="163.00000" r="2"/>
<circle cx="299.23333" cy="163.00000" r="2"/>
<circle cx="304.86667" cy="163.00000" r="2"/>
<circle cx="310.50000" cy="163.00000" r="2"/>
<circle cx="316.13333" cy="163.00000" r="2"/>
<circle cx="321.76667" cy="163.00000" r="2"/>
<circle cx="327.40000" cy="163.00000" r="2"/>
<circle cx="333.03333" cy="163.00000" r="2"/>
<circle cx="338.66667" cy="163.00000" r="2"/>
<circle cx="344.30000" cy="163.00000" r="2"/>
<circle cx="349.93333" cy="163.00000" r="2"/>
<circle cx="355.56667" cy="163.00000" r="2"/>
<circle cx="361.20000" cy="163.00000" r="2"/>
<circle cx="366.83333" cy="163.00000" r="2"/>
<circle cx="372.46667" cy="163.00000" r="2"/>
<circle cx="378.10000" cy="163.00000" r="2"/>
<circle cx="383.73333" cy="163.00000" r="2"/>
<circle cx="389.36667" cy="163.00000" r="2"/>
<circle cx="395.00000" cy="163.00000" r="2"/>
</g>
<rect x="92" y="92" width="70" height="40" fill="#ffffff" stroke="#000000" stroke-width="2px"/>
<path stroke="#ff0000" stroke-width="2px" d="M 100.000000 104.00000 L116.00000 104.00000"/>
<circle fill="#ff0000" cx="108.00000" cy="104.00000" r="3"/>
<text font-size="8px" x="124.00000" y="108.00000">1 WTC</text>
<path stroke="#0000ff" stroke-width="1px" d="M 100.000000 120.00000 L116.00000 120.00000"/>
<circle fill="#0000ff" cx="108.00000" cy="120.00000" r="2"/>
<text font-size="8px" x="124.00000" y="124.00000">2 WTC</text>
</svg>
